<svg xmlns="http://www.w3.org/2000/svg" width="700" height="200" viewBox="0 0 700 200">
  <style>
    text { font-family: -apple-system, BlinkMacSystemFont, "Segoe UI", sans-serif; }
  </style>
  <rect x="1" y="1" rx="5" ry="5" width="698" height="198" fill="#ffffff" stroke="#e4e2e2"/>
  <text x="30" y="40" fill="#0366d6" font-size="22">RitwijParmar (Ritwij Aryan Parmar)</text>
  <g fill="#586069" font-size="14">
    <text x="30" y="84">1130 Contributions in 2026</text>
    <text x="30" y="112">74 Public Repos</text>
    <text x="30" y="140">Joined GitHub 5 years ago</text>
    <text x="30" y="168">New York</text>
  </g>
  <path d="M265.0,160 L265.0,160.0 L272.3,160.0 L279.6,151.1 L286.9,156.8 L294.2,158.4 L301.5,157.4 L308.8,154.7 L316.2,160.0 L323.5,160.0 L330.8,160.0 L338.1,160.0 L345.4,160.0 L352.7,160.0 L360.0,160.0 L367.3,160.0 L374.6,160.0 L381.9,160.0 L389.2,160.0 L396.5,157.4 L403.8,150.5 L411.2,155.8 L418.5,153.2 L425.8,151.1 L433.1,153.7 L440.4,153.7 L447.7,160.0 L455.0,160.0 L462.3,160.0 L469.6,112.1 L476.9,76.3 L484.2,86.8 L491.5,158.9 L498.8,159.5 L506.2,141.6 L513.5,138.4 L520.8,160.0 L528.1,158.9 L535.4,50.0 L542.7,117.9 L550.0,103.2 L557.3,146.3 L564.6,157.9 L571.9,160.0 L579.2,148.4 L586.5,150.0 L593.8,157.9 L601.2,158.9 L608.5,156.8 L615.8,138.9 L623.1,146.8 L630.4,144.7 L637.7,159.5 L645.0,160.0 L645.0,160 Z" fill="#40c463" opacity="0.95"/>
  <polyline points="265.0,160.0 272.3,160.0 279.6,151.1 286.9,156.8 294.2,158.4 301.5,157.4 308.8,154.7 316.2,160.0 323.5,160.0 330.8,160.0 338.1,160.0 345.4,160.0 352.7,160.0 360.0,160.0 367.3,160.0 374.6,160.0 381.9,160.0 389.2,160.0 396.5,157.4 403.8,150.5 411.2,155.8 418.5,153.2 425.8,151.1 433.1,153.7 440.4,153.7 447.7,160.0 455.0,160.0 462.3,160.0 469.6,112.1 476.9,76.3 484.2,86.8 491.5,158.9 498.8,159.5 506.2,141.6 513.5,138.4 520.8,160.0 528.1,158.9 535.4,50.0 542.7,117.9 550.0,103.2 557.3,146.3 564.6,157.9 571.9,160.0 579.2,148.4 586.5,150.0 593.8,157.9 601.2,158.9 608.5,156.8 615.8,138.9 623.1,146.8 630.4,144.7 637.7,159.5 645.0,160.0" fill="none" stroke="#40c463" stroke-width="2"/>
  <path d="M265,160.5H645" stroke="#586069"/>
  <g transform="translate(645,50)"><path d="M6,110.5H0.5V0.5H6" stroke="#586069" fill="none"/><g transform="translate(0,110.0)"><line stroke="#586069" x2="6"/><text fill="#586069" x="9" dy="0.32em" font-size="10">0</text></g><g transform="translate(0,88.0)"><line stroke="#586069" x2="6"/><text fill="#586069" x="9" dy="0.32em" font-size="10">42</text></g><g transform="translate(0,66.0)"><line stroke="#586069" x2="6"/><text fill="#586069" x="9" dy="0.32em" font-size="10">84</text></g><g transform="translate(0,44.0)"><line stroke="#586069" x2="6"/><text fill="#586069" x="9" dy="0.32em" font-size="10">126</text></g><g transform="translate(0,22.0)"><line stroke="#586069" x2="6"/><text fill="#586069" x="9" dy="0.32em" font-size="10">168</text></g><g transform="translate(0,0.0)"><line stroke="#586069" x2="6"/><text fill="#586069" x="9" dy="0.32em" font-size="10">210</text></g></g>
  <text x="515" y="190" fill="#586069" font-size="10">contributions in the last year</text>
  <text x="265" y="178" fill="#586069" font-size="10">25/09</text>
  <text x="620" y="178" fill="#586069" font-size="10">26/09</text>
</svg>
