<svg xmlns="http://www.w3.org/2000/svg" width="700" height="200" viewBox="0 0 700 200">
  <style>
    text { font-family: -apple-system, BlinkMacSystemFont, "Segoe UI", sans-serif; }
  </style>
  <rect x="1" y="1" rx="5" ry="5" width="698" height="198" fill="#ffffff" stroke="#e4e2e2"/>
  <text x="30" y="40" fill="#0366d6" font-size="22">RitwijParmar (Ritwij Aryan Parmar)</text>
  <g fill="#586069" font-size="14">
    <text x="30" y="84">1035 Contributions in 2026</text>
    <text x="30" y="112">163 Public Repos</text>
    <text x="30" y="140">Joined GitHub 4 years ago</text>
    <text x="30" y="168">New York</text>
  </g>
  <path d="M265.0,160 L265.0,159.0 L272.3,153.8 L279.6,158.1 L286.9,156.2 L294.2,159.5 L301.5,160.0 L308.8,160.0 L316.2,160.0 L323.5,160.0 L330.8,160.0 L338.1,160.0 L345.4,160.0 L352.7,158.6 L360.0,151.4 L367.3,159.0 L374.6,158.1 L381.9,155.7 L389.2,160.0 L396.5,160.0 L403.8,160.0 L411.2,160.0 L418.5,160.0 L425.8,160.0 L433.1,160.0 L440.4,160.0 L447.7,160.0 L455.0,160.0 L462.3,160.0 L469.6,157.6 L476.9,152.4 L484.2,155.7 L491.5,154.8 L498.8,151.9 L506.2,154.8 L513.5,153.8 L520.8,160.0 L528.1,160.0 L535.4,160.0 L542.7,121.9 L550.0,85.7 L557.3,89.0 L564.6,159.0 L571.9,159.5 L579.2,143.3 L586.5,140.5 L593.8,160.0 L601.2,160.0 L608.5,50.0 L615.8,111.4 L623.1,105.7 L630.4,142.4 L637.7,157.6 L645.0,160.0 L645.0,160 Z" fill="#40c463" opacity="0.95"/>
  <polyline points="265.0,159.0 272.3,153.8 279.6,158.1 286.9,156.2 294.2,159.5 301.5,160.0 308.8,160.0 316.2,160.0 323.5,160.0 330.8,160.0 338.1,160.0 345.4,160.0 352.7,158.6 360.0,151.4 367.3,159.0 374.6,158.1 381.9,155.7 389.2,160.0 396.5,160.0 403.8,160.0 411.2,160.0 418.5,160.0 425.8,160.0 433.1,160.0 440.4,160.0 447.7,160.0 455.0,160.0 462.3,160.0 469.6,157.6 476.9,152.4 484.2,155.7 491.5,154.8 498.8,151.9 506.2,154.8 513.5,153.8 520.8,160.0 528.1,160.0 535.4,160.0 542.7,121.9 550.0,85.7 557.3,89.0 564.6,159.0 571.9,159.5 579.2,143.3 586.5,140.5 593.8,160.0 601.2,160.0 608.5,50.0 615.8,111.4 623.1,105.7 630.4,142.4 637.7,157.6 645.0,160.0" fill="none" stroke="#40c463" stroke-width="2"/>
  <path d="M265,160.5H645" stroke="#586069"/>
  <g transform="translate(645,50)"><path d="M6,110.5H0.5V0.5H6" stroke="#586069" fill="none"/><g transform="translate(0,110.0)"><line stroke="#586069" x2="6"/><text fill="#586069" x="9" dy="0.32em" font-size="10">0</text></g><g transform="translate(0,88.0)"><line stroke="#586069" x2="6"/><text fill="#586069" x="9" dy="0.32em" font-size="10">47</text></g><g transform="translate(0,66.0)"><line stroke="#586069" x2="6"/><text fill="#586069" x="9" dy="0.32em" font-size="10">94</text></g><g transform="translate(0,44.0)"><line stroke="#586069" x2="6"/><text fill="#586069" x="9" dy="0.32em" font-size="10">141</text></g><g transform="translate(0,22.0)"><line stroke="#586069" x2="6"/><text fill="#586069" x="9" dy="0.32em" font-size="10">188</text></g><g transform="translate(0,0.0)"><line stroke="#586069" x2="6"/><text fill="#586069" x="9" dy="0.32em" font-size="10">235</text></g></g>
  <text x="515" y="190" fill="#586069" font-size="10">contributions in the last year</text>
  <text x="265" y="178" fill="#586069" font-size="10">25/06</text>
  <text x="620" y="178" fill="#586069" font-size="10">26/06</text>
</svg>
