<svg xmlns="http://www.w3.org/2000/svg" width="700" height="200" viewBox="0 0 700 200">
  <style>
    text { font-family: -apple-system, BlinkMacSystemFont, "Segoe UI", sans-serif; }
  </style>
  <rect x="1" y="1" rx="5" ry="5" width="698" height="198" fill="#ffffff" stroke="#e4e2e2"/>
  <text x="30" y="40" fill="#0366d6" font-size="22">RitwijParmar (Ritwij Aryan Parmar)</text>
  <g fill="#586069" font-size="14">
    <text x="30" y="84">901 Contributions in 2026</text>
    <text x="30" y="112">130 Public Repos</text>
    <text x="30" y="140">Joined GitHub 4 years ago</text>
    <text x="30" y="168">New York</text>
  </g>
  <path d="M265.0,160 L265.0,152.2 L272.3,156.1 L279.6,152.2 L286.9,155.6 L294.2,158.9 L301.5,151.1 L308.8,157.8 L316.2,157.2 L323.5,160.0 L330.8,160.0 L338.1,160.0 L345.4,160.0 L352.7,160.0 L360.0,160.0 L367.3,160.0 L374.6,160.0 L381.9,148.3 L389.2,160.0 L396.5,158.3 L403.8,156.7 L411.2,156.7 L418.5,160.0 L425.8,160.0 L433.1,160.0 L440.4,160.0 L447.7,160.0 L455.0,160.0 L462.3,160.0 L469.6,160.0 L476.9,160.0 L484.2,160.0 L491.5,160.0 L498.8,155.6 L506.2,149.4 L513.5,156.1 L520.8,151.7 L528.1,153.3 L535.4,151.7 L542.7,155.6 L550.0,160.0 L557.3,160.0 L564.6,160.0 L571.9,83.3 L579.2,50.0 L586.5,128.3 L593.8,159.4 L601.2,158.9 L608.5,140.6 L615.8,137.2 L623.1,160.0 L630.4,86.1 L637.7,68.9 L645.0,133.3 L645.0,160 Z" fill="#40c463" opacity="0.95"/>
  <polyline points="265.0,152.2 272.3,156.1 279.6,152.2 286.9,155.6 294.2,158.9 301.5,151.1 308.8,157.8 316.2,157.2 323.5,160.0 330.8,160.0 338.1,160.0 345.4,160.0 352.7,160.0 360.0,160.0 367.3,160.0 374.6,160.0 381.9,148.3 389.2,160.0 396.5,158.3 403.8,156.7 411.2,156.7 418.5,160.0 425.8,160.0 433.1,160.0 440.4,160.0 447.7,160.0 455.0,160.0 462.3,160.0 469.6,160.0 476.9,160.0 484.2,160.0 491.5,160.0 498.8,155.6 506.2,149.4 513.5,156.1 520.8,151.7 528.1,153.3 535.4,151.7 542.7,155.6 550.0,160.0 557.3,160.0 564.6,160.0 571.9,83.3 579.2,50.0 586.5,128.3 593.8,159.4 601.2,158.9 608.5,140.6 615.8,137.2 623.1,160.0 630.4,86.1 637.7,68.9 645.0,133.3" fill="none" stroke="#40c463" stroke-width="2"/>
  <path d="M265,160.5H645" stroke="#586069"/>
  <g transform="translate(645,50)"><path d="M6,110.5H0.5V0.5H6" stroke="#586069" fill="none"/><g transform="translate(0,110.0)"><line stroke="#586069" x2="6"/><text fill="#586069" x="9" dy="0.32em" font-size="10">0</text></g><g transform="translate(0,88.0)"><line stroke="#586069" x2="6"/><text fill="#586069" x="9" dy="0.32em" font-size="10">40</text></g><g transform="translate(0,66.0)"><line stroke="#586069" x2="6"/><text fill="#586069" x="9" dy="0.32em" font-size="10">80</text></g><g transform="translate(0,44.0)"><line stroke="#586069" x2="6"/><text fill="#586069" x="9" dy="0.32em" font-size="10">120</text></g><g transform="translate(0,22.0)"><line stroke="#586069" x2="6"/><text fill="#586069" x="9" dy="0.32em" font-size="10">160</text></g><g transform="translate(0,0.0)"><line stroke="#586069" x2="6"/><text fill="#586069" x="9" dy="0.32em" font-size="10">200</text></g></g>
  <text x="515" y="190" fill="#586069" font-size="10">contributions in the last year</text>
  <text x="265" y="178" fill="#586069" font-size="10">25/06</text>
  <text x="620" y="178" fill="#586069" font-size="10">26/06</text>
</svg>
