<svg xmlns="http://www.w3.org/2000/svg" width="700" height="200" viewBox="0 0 700 200">
  <style>
    text { font-family: -apple-system, BlinkMacSystemFont, "Segoe UI", sans-serif; }
  </style>
  <rect x="1" y="1" rx="5" ry="5" width="698" height="198" fill="#ffffff" stroke="#e4e2e2"/>
  <text x="30" y="40" fill="#0366d6" font-size="22">RitwijParmar (Ritwij Aryan Parmar)</text>
  <g fill="#586069" font-size="14">
    <text x="30" y="84">1035 Contributions in 2026</text>
    <text x="30" y="112">163 Public Repos</text>
    <text x="30" y="140">Joined GitHub 4 years ago</text>
    <text x="30" y="168">New York</text>
  </g>
  <path d="M265.0,160 L265.0,156.8 L272.3,156.8 L279.6,151.8 L286.9,157.5 L294.2,156.8 L301.5,160.0 L308.8,160.0 L316.2,160.0 L323.5,160.0 L330.8,160.0 L338.1,160.0 L345.4,160.0 L352.7,160.0 L360.0,146.7 L367.3,160.0 L374.6,158.1 L381.9,155.6 L389.2,156.8 L396.5,160.0 L403.8,160.0 L411.2,160.0 L418.5,160.0 L425.8,160.0 L433.1,160.0 L440.4,160.0 L447.7,160.0 L455.0,160.0 L462.3,160.0 L469.6,160.0 L476.9,148.0 L484.2,154.3 L491.5,155.6 L498.8,151.1 L506.2,150.5 L513.5,152.4 L520.8,156.2 L528.1,160.0 L535.4,160.0 L542.7,127.1 L550.0,67.1 L557.3,50.0 L564.6,151.8 L571.9,159.4 L579.2,156.8 L586.5,140.4 L593.8,134.1 L601.2,160.0 L608.5,74.7 L615.8,66.4 L623.1,63.3 L630.4,137.2 L637.7,149.9 L645.0,159.4 L645.0,160 Z" fill="#40c463" opacity="0.95"/>
  <polyline points="265.0,156.8 272.3,156.8 279.6,151.8 286.9,157.5 294.2,156.8 301.5,160.0 308.8,160.0 316.2,160.0 323.5,160.0 330.8,160.0 338.1,160.0 345.4,160.0 352.7,160.0 360.0,146.7 367.3,160.0 374.6,158.1 381.9,155.6 389.2,156.8 396.5,160.0 403.8,160.0 411.2,160.0 418.5,160.0 425.8,160.0 433.1,160.0 440.4,160.0 447.7,160.0 455.0,160.0 462.3,160.0 469.6,160.0 476.9,148.0 484.2,154.3 491.5,155.6 498.8,151.1 506.2,150.5 513.5,152.4 520.8,156.2 528.1,160.0 535.4,160.0 542.7,127.1 550.0,67.1 557.3,50.0 564.6,151.8 571.9,159.4 579.2,156.8 586.5,140.4 593.8,134.1 601.2,160.0 608.5,74.7 615.8,66.4 623.1,63.3 630.4,137.2 637.7,149.9 645.0,159.4" fill="none" stroke="#40c463" stroke-width="2"/>
  <path d="M265,160.5H645" stroke="#586069"/>
  <g transform="translate(645,50)"><path d="M6,110.5H0.5V0.5H6" stroke="#586069" fill="none"/><g transform="translate(0,110.0)"><line stroke="#586069" x2="6"/><text fill="#586069" x="9" dy="0.32em" font-size="10">0</text></g><g transform="translate(0,88.0)"><line stroke="#586069" x2="6"/><text fill="#586069" x="9" dy="0.32em" font-size="10">35</text></g><g transform="translate(0,66.0)"><line stroke="#586069" x2="6"/><text fill="#586069" x="9" dy="0.32em" font-size="10">70</text></g><g transform="translate(0,44.0)"><line stroke="#586069" x2="6"/><text fill="#586069" x="9" dy="0.32em" font-size="10">105</text></g><g transform="translate(0,22.0)"><line stroke="#586069" x2="6"/><text fill="#586069" x="9" dy="0.32em" font-size="10">140</text></g><g transform="translate(0,0.0)"><line stroke="#586069" x2="6"/><text fill="#586069" x="9" dy="0.32em" font-size="10">175</text></g></g>
  <text x="515" y="190" fill="#586069" font-size="10">contributions in the last year</text>
  <text x="265" y="178" fill="#586069" font-size="10">25/06</text>
  <text x="620" y="178" fill="#586069" font-size="10">26/06</text>
</svg>
