<svg xmlns="http://www.w3.org/2000/svg" width="700" height="200" viewBox="0 0 700 200">
  <style>
    text { font-family: -apple-system, BlinkMacSystemFont, "Segoe UI", sans-serif; }
  </style>
  <rect x="1" y="1" rx="5" ry="5" width="698" height="198" fill="#ffffff" stroke="#e4e2e2"/>
  <text x="30" y="40" fill="#0366d6" font-size="22">RitwijParmar (Ritwij Aryan Parmar)</text>
  <g fill="#586069" font-size="14">
    <text x="30" y="84">1063 Contributions in 2026</text>
    <text x="30" y="112">105 Public Repos</text>
    <text x="30" y="140">Joined GitHub 4 years ago</text>
    <text x="30" y="168">New York</text>
  </g>
  <path d="M265.0,160 L265.0,148.9 L272.3,160.0 L279.6,160.0 L286.9,160.0 L294.2,160.0 L301.5,160.0 L308.8,160.0 L316.2,160.0 L323.5,160.0 L330.8,147.2 L338.1,160.0 L345.4,157.8 L352.7,156.7 L360.0,155.6 L367.3,160.0 L374.6,160.0 L381.9,160.0 L389.2,160.0 L396.5,160.0 L403.8,160.0 L411.2,160.0 L418.5,160.0 L425.8,160.0 L433.1,160.0 L440.4,160.0 L447.7,155.6 L455.0,148.9 L462.3,156.1 L469.6,151.7 L476.9,153.3 L484.2,151.7 L491.5,155.6 L498.8,160.0 L506.2,160.0 L513.5,160.0 L520.8,83.3 L528.1,50.0 L535.4,130.0 L542.7,159.4 L550.0,159.4 L557.3,140.6 L564.6,137.2 L571.9,160.0 L579.2,103.3 L586.5,77.2 L593.8,119.4 L601.2,101.1 L608.5,142.2 L615.8,158.9 L623.1,159.4 L630.4,147.2 L637.7,148.3 L645.0,159.4 L645.0,160 Z" fill="#40c463" opacity="0.95"/>
  <polyline points="265.0,148.9 272.3,160.0 279.6,160.0 286.9,160.0 294.2,160.0 301.5,160.0 308.8,160.0 316.2,160.0 323.5,160.0 330.8,147.2 338.1,160.0 345.4,157.8 352.7,156.7 360.0,155.6 367.3,160.0 374.6,160.0 381.9,160.0 389.2,160.0 396.5,160.0 403.8,160.0 411.2,160.0 418.5,160.0 425.8,160.0 433.1,160.0 440.4,160.0 447.7,155.6 455.0,148.9 462.3,156.1 469.6,151.7 476.9,153.3 484.2,151.7 491.5,155.6 498.8,160.0 506.2,160.0 513.5,160.0 520.8,83.3 528.1,50.0 535.4,130.0 542.7,159.4 550.0,159.4 557.3,140.6 564.6,137.2 571.9,160.0 579.2,103.3 586.5,77.2 593.8,119.4 601.2,101.1 608.5,142.2 615.8,158.9 623.1,159.4 630.4,147.2 637.7,148.3 645.0,159.4" fill="none" stroke="#40c463" stroke-width="2"/>
  <path d="M265,160.5H645" stroke="#586069"/>
  <g transform="translate(645,50)"><path d="M6,110.5H0.5V0.5H6" stroke="#586069" fill="none"/><g transform="translate(0,110.0)"><line stroke="#586069" x2="6"/><text fill="#586069" x="9" dy="0.32em" font-size="10">0</text></g><g transform="translate(0,88.0)"><line stroke="#586069" x2="6"/><text fill="#586069" x="9" dy="0.32em" font-size="10">40</text></g><g transform="translate(0,66.0)"><line stroke="#586069" x2="6"/><text fill="#586069" x="9" dy="0.32em" font-size="10">80</text></g><g transform="translate(0,44.0)"><line stroke="#586069" x2="6"/><text fill="#586069" x="9" dy="0.32em" font-size="10">120</text></g><g transform="translate(0,22.0)"><line stroke="#586069" x2="6"/><text fill="#586069" x="9" dy="0.32em" font-size="10">160</text></g><g transform="translate(0,0.0)"><line stroke="#586069" x2="6"/><text fill="#586069" x="9" dy="0.32em" font-size="10">200</text></g></g>
  <text x="515" y="190" fill="#586069" font-size="10">contributions in the last year</text>
  <text x="265" y="178" fill="#586069" font-size="10">25/07</text>
  <text x="620" y="178" fill="#586069" font-size="10">26/07</text>
</svg>
