<svg xmlns="http://www.w3.org/2000/svg" width="700" height="200" viewBox="0 0 700 200">
  <style>
    text { font-family: -apple-system, BlinkMacSystemFont, "Segoe UI", sans-serif; }
  </style>
  <rect x="1" y="1" rx="5" ry="5" width="698" height="198" fill="#ffffff" stroke="#e4e2e2"/>
  <text x="30" y="40" fill="#0366d6" font-size="22">RitwijParmar (Ritwij Aryan Parmar)</text>
  <g fill="#586069" font-size="14">
    <text x="30" y="84">1033 Contributions in 2026</text>
    <text x="30" y="112">163 Public Repos</text>
    <text x="30" y="140">Joined GitHub 4 years ago</text>
    <text x="30" y="168">New York</text>
  </g>
  <path d="M265.0,160 L265.0,156.2 L272.3,159.2 L279.6,153.2 L286.9,159.2 L294.2,156.6 L301.5,160.0 L308.8,160.0 L316.2,160.0 L323.5,160.0 L330.8,160.0 L338.1,160.0 L345.4,160.0 L352.7,160.0 L360.0,152.0 L367.3,159.2 L374.6,159.2 L381.9,157.5 L389.2,157.0 L396.5,160.0 L403.8,160.0 L411.2,160.0 L418.5,160.0 L425.8,160.0 L433.1,160.0 L440.4,160.0 L447.7,160.0 L455.0,160.0 L462.3,160.0 L469.6,160.0 L476.9,156.6 L484.2,152.8 L491.5,157.9 L498.8,153.2 L506.2,153.7 L513.5,154.5 L520.8,156.6 L528.1,160.0 L535.4,160.0 L542.7,160.0 L550.0,104.6 L557.3,82.6 L564.6,129.5 L571.9,159.6 L579.2,159.6 L586.5,145.2 L593.8,142.7 L601.2,160.0 L608.5,159.2 L615.8,50.0 L623.1,127.4 L630.4,114.3 L637.7,143.1 L645.0,160.0 L645.0,160 Z" fill="#40c463" opacity="0.95"/>
  <polyline points="265.0,156.2 272.3,159.2 279.6,153.2 286.9,159.2 294.2,156.6 301.5,160.0 308.8,160.0 316.2,160.0 323.5,160.0 330.8,160.0 338.1,160.0 345.4,160.0 352.7,160.0 360.0,152.0 367.3,159.2 374.6,159.2 381.9,157.5 389.2,157.0 396.5,160.0 403.8,160.0 411.2,160.0 418.5,160.0 425.8,160.0 433.1,160.0 440.4,160.0 447.7,160.0 455.0,160.0 462.3,160.0 469.6,160.0 476.9,156.6 484.2,152.8 491.5,157.9 498.8,153.2 506.2,153.7 513.5,154.5 520.8,156.6 528.1,160.0 535.4,160.0 542.7,160.0 550.0,104.6 557.3,82.6 564.6,129.5 571.9,159.6 579.2,159.6 586.5,145.2 593.8,142.7 601.2,160.0 608.5,159.2 615.8,50.0 623.1,127.4 630.4,114.3 637.7,143.1 645.0,160.0" fill="none" stroke="#40c463" stroke-width="2"/>
  <path d="M265,160.5H645" stroke="#586069"/>
  <g transform="translate(645,50)"><path d="M6,110.5H0.5V0.5H6" stroke="#586069" fill="none"/><g transform="translate(0,110.0)"><line stroke="#586069" x2="6"/><text fill="#586069" x="9" dy="0.32em" font-size="10">0</text></g><g transform="translate(0,88.0)"><line stroke="#586069" x2="6"/><text fill="#586069" x="9" dy="0.32em" font-size="10">52</text></g><g transform="translate(0,66.0)"><line stroke="#586069" x2="6"/><text fill="#586069" x="9" dy="0.32em" font-size="10">104</text></g><g transform="translate(0,44.0)"><line stroke="#586069" x2="6"/><text fill="#586069" x="9" dy="0.32em" font-size="10">156</text></g><g transform="translate(0,22.0)"><line stroke="#586069" x2="6"/><text fill="#586069" x="9" dy="0.32em" font-size="10">208</text></g><g transform="translate(0,0.0)"><line stroke="#586069" x2="6"/><text fill="#586069" x="9" dy="0.32em" font-size="10">260</text></g></g>
  <text x="515" y="190" fill="#586069" font-size="10">contributions in the last year</text>
  <text x="265" y="178" fill="#586069" font-size="10">25/06</text>
  <text x="620" y="178" fill="#586069" font-size="10">26/06</text>
</svg>
