<svg xmlns="http://www.w3.org/2000/svg" width="700" height="200" viewBox="0 0 700 200">
  <style>
    text { font-family: -apple-system, BlinkMacSystemFont, "Segoe UI", sans-serif; }
  </style>
  <rect x="1" y="1" rx="5" ry="5" width="698" height="198" fill="#ffffff" stroke="#e4e2e2"/>
  <text x="30" y="40" fill="#0366d6" font-size="22">RitwijParmar (Ritwij Aryan Parmar)</text>
  <g fill="#586069" font-size="14">
    <text x="30" y="84">905 Contributions in 2026</text>
    <text x="30" y="112">131 Public Repos</text>
    <text x="30" y="140">Joined GitHub 4 years ago</text>
    <text x="30" y="168">New York</text>
  </g>
  <path d="M265.0,160 L265.0,152.6 L272.3,156.9 L279.6,149.6 L286.9,157.5 L294.2,155.1 L301.5,153.9 L308.8,156.9 L316.2,157.5 L323.5,160.0 L330.8,160.0 L338.1,160.0 L345.4,160.0 L352.7,160.0 L360.0,160.0 L367.3,160.0 L374.6,160.0 L381.9,147.1 L389.2,160.0 L396.5,157.5 L403.8,155.7 L411.2,157.5 L418.5,160.0 L425.8,160.0 L433.1,160.0 L440.4,160.0 L447.7,160.0 L455.0,160.0 L462.3,160.0 L469.6,160.0 L476.9,160.0 L484.2,160.0 L491.5,160.0 L498.8,148.3 L506.2,153.9 L513.5,153.9 L520.8,151.4 L528.1,152.6 L535.4,153.2 L542.7,155.7 L550.0,160.0 L557.3,160.0 L564.6,120.1 L571.9,70.9 L579.2,51.2 L586.5,156.3 L593.8,158.2 L601.2,138.5 L608.5,160.0 L615.8,134.8 L623.1,160.0 L630.4,50.0 L637.7,57.4 L645.0,157.5 L645.0,160 Z" fill="#40c463" opacity="0.95"/>
  <polyline points="265.0,152.6 272.3,156.9 279.6,149.6 286.9,157.5 294.2,155.1 301.5,153.9 308.8,156.9 316.2,157.5 323.5,160.0 330.8,160.0 338.1,160.0 345.4,160.0 352.7,160.0 360.0,160.0 367.3,160.0 374.6,160.0 381.9,147.1 389.2,160.0 396.5,157.5 403.8,155.7 411.2,157.5 418.5,160.0 425.8,160.0 433.1,160.0 440.4,160.0 447.7,160.0 455.0,160.0 462.3,160.0 469.6,160.0 476.9,160.0 484.2,160.0 491.5,160.0 498.8,148.3 506.2,153.9 513.5,153.9 520.8,151.4 528.1,152.6 535.4,153.2 542.7,155.7 550.0,160.0 557.3,160.0 564.6,120.1 571.9,70.9 579.2,51.2 586.5,156.3 593.8,158.2 601.2,138.5 608.5,160.0 615.8,134.8 623.1,160.0 630.4,50.0 637.7,57.4 645.0,157.5" fill="none" stroke="#40c463" stroke-width="2"/>
  <path d="M265,160.5H645" stroke="#586069"/>
  <g transform="translate(645,50)"><path d="M6,110.5H0.5V0.5H6" stroke="#586069" fill="none"/><g transform="translate(0,110.0)"><line stroke="#586069" x2="6"/><text fill="#586069" x="9" dy="0.32em" font-size="10">0</text></g><g transform="translate(0,88.0)"><line stroke="#586069" x2="6"/><text fill="#586069" x="9" dy="0.32em" font-size="10">36</text></g><g transform="translate(0,66.0)"><line stroke="#586069" x2="6"/><text fill="#586069" x="9" dy="0.32em" font-size="10">72</text></g><g transform="translate(0,44.0)"><line stroke="#586069" x2="6"/><text fill="#586069" x="9" dy="0.32em" font-size="10">108</text></g><g transform="translate(0,22.0)"><line stroke="#586069" x2="6"/><text fill="#586069" x="9" dy="0.32em" font-size="10">144</text></g><g transform="translate(0,0.0)"><line stroke="#586069" x2="6"/><text fill="#586069" x="9" dy="0.32em" font-size="10">180</text></g></g>
  <text x="515" y="190" fill="#586069" font-size="10">contributions in the last year</text>
  <text x="265" y="178" fill="#586069" font-size="10">25/06</text>
  <text x="620" y="178" fill="#586069" font-size="10">26/06</text>
</svg>
