<svg xmlns="http://www.w3.org/2000/svg" width="700" height="200" viewBox="0 0 700 200">
  <style>
    text { font-family: -apple-system, BlinkMacSystemFont, "Segoe UI", sans-serif; }
  </style>
  <rect x="1" y="1" rx="5" ry="5" width="698" height="198" fill="#ffffff" stroke="#e4e2e2"/>
  <text x="30" y="40" fill="#0366d6" font-size="22">RitwijParmar (Ritwij Aryan Parmar)</text>
  <g fill="#586069" font-size="14">
    <text x="30" y="84">1067 Contributions in 2026</text>
    <text x="30" y="112">165 Public Repos</text>
    <text x="30" y="140">Joined GitHub 4 years ago</text>
    <text x="30" y="168">New York</text>
  </g>
  <path d="M265.0,160 L265.0,157.8 L272.3,157.2 L279.6,160.0 L286.9,160.0 L294.2,160.0 L301.5,160.0 L308.8,160.0 L316.2,160.0 L323.5,160.0 L330.8,160.0 L338.1,148.2 L345.4,160.0 L352.7,158.3 L360.0,156.6 L367.3,156.6 L374.6,160.0 L381.9,160.0 L389.2,160.0 L396.5,160.0 L403.8,160.0 L411.2,160.0 L418.5,160.0 L425.8,160.0 L433.1,160.0 L440.4,160.0 L447.7,160.0 L455.0,155.5 L462.3,149.3 L469.6,156.1 L476.9,151.6 L484.2,153.3 L491.5,152.1 L498.8,156.1 L506.2,160.0 L513.5,160.0 L520.8,160.0 L528.1,83.7 L535.4,50.0 L542.7,129.7 L550.0,159.4 L557.3,159.4 L564.6,140.4 L571.9,137.0 L579.2,160.0 L586.5,99.4 L593.8,68.0 L601.2,117.3 L608.5,98.8 L615.8,139.2 L623.1,158.9 L630.4,159.4 L637.7,147.1 L645.0,159.4 L645.0,160 Z" fill="#40c463" opacity="0.95"/>
  <polyline points="265.0,157.8 272.3,157.2 279.6,160.0 286.9,160.0 294.2,160.0 301.5,160.0 308.8,160.0 316.2,160.0 323.5,160.0 330.8,160.0 338.1,148.2 345.4,160.0 352.7,158.3 360.0,156.6 367.3,156.6 374.6,160.0 381.9,160.0 389.2,160.0 396.5,160.0 403.8,160.0 411.2,160.0 418.5,160.0 425.8,160.0 433.1,160.0 440.4,160.0 447.7,160.0 455.0,155.5 462.3,149.3 469.6,156.1 476.9,151.6 484.2,153.3 491.5,152.1 498.8,156.1 506.2,160.0 513.5,160.0 520.8,160.0 528.1,83.7 535.4,50.0 542.7,129.7 550.0,159.4 557.3,159.4 564.6,140.4 571.9,137.0 579.2,160.0 586.5,99.4 593.8,68.0 601.2,117.3 608.5,98.8 615.8,139.2 623.1,158.9 630.4,159.4 637.7,147.1 645.0,159.4" fill="none" stroke="#40c463" stroke-width="2"/>
  <path d="M265,160.5H645" stroke="#586069"/>
  <g transform="translate(645,50)"><path d="M6,110.5H0.5V0.5H6" stroke="#586069" fill="none"/><g transform="translate(0,110.0)"><line stroke="#586069" x2="6"/><text fill="#586069" x="9" dy="0.32em" font-size="10">0</text></g><g transform="translate(0,88.0)"><line stroke="#586069" x2="6"/><text fill="#586069" x="9" dy="0.32em" font-size="10">40</text></g><g transform="translate(0,66.0)"><line stroke="#586069" x2="6"/><text fill="#586069" x="9" dy="0.32em" font-size="10">80</text></g><g transform="translate(0,44.0)"><line stroke="#586069" x2="6"/><text fill="#586069" x="9" dy="0.32em" font-size="10">120</text></g><g transform="translate(0,22.0)"><line stroke="#586069" x2="6"/><text fill="#586069" x="9" dy="0.32em" font-size="10">160</text></g><g transform="translate(0,0.0)"><line stroke="#586069" x2="6"/><text fill="#586069" x="9" dy="0.32em" font-size="10">200</text></g></g>
  <text x="515" y="190" fill="#586069" font-size="10">contributions in the last year</text>
  <text x="265" y="178" fill="#586069" font-size="10">25/07</text>
  <text x="620" y="178" fill="#586069" font-size="10">26/07</text>
</svg>
