<svg xmlns="http://www.w3.org/2000/svg" width="700" height="200" viewBox="0 0 700 200">
  <style>
    text { font-family: -apple-system, BlinkMacSystemFont, "Segoe UI", sans-serif; }
  </style>
  <rect x="1" y="1" rx="5" ry="5" width="698" height="198" fill="#ffffff" stroke="#e4e2e2"/>
  <text x="30" y="40" fill="#0366d6" font-size="22">RitwijParmar (Ritwij Aryan Parmar)</text>
  <g fill="#586069" font-size="14">
    <text x="30" y="84">1072 Contributions in 2026</text>
    <text x="30" y="112">106 Public Repos</text>
    <text x="30" y="140">Joined GitHub 5 years ago</text>
    <text x="30" y="168">New York</text>
  </g>
  <path d="M265.0,160 L265.0,160.0 L272.3,160.0 L279.6,160.0 L286.9,160.0 L294.2,160.0 L301.5,160.0 L308.8,150.7 L316.2,158.6 L323.5,158.6 L330.8,157.2 L338.1,155.8 L345.4,160.0 L352.7,160.0 L360.0,160.0 L367.3,160.0 L374.6,160.0 L381.9,160.0 L389.2,160.0 L396.5,160.0 L403.8,160.0 L411.2,160.0 L418.5,160.0 L425.8,156.3 L433.1,151.6 L440.4,157.7 L447.7,152.6 L455.0,153.0 L462.3,153.5 L469.6,155.8 L476.9,160.0 L484.2,160.0 L491.5,160.0 L498.8,98.3 L506.2,74.1 L513.5,126.6 L520.8,159.5 L528.1,159.5 L535.4,143.8 L542.7,141.0 L550.0,160.0 L557.3,159.1 L564.6,50.0 L571.9,124.7 L579.2,108.0 L586.5,143.8 L593.8,158.6 L601.2,160.0 L608.5,149.8 L615.8,149.3 L623.1,159.5 L630.4,159.1 L637.7,157.2 L645.0,160.0 L645.0,160 Z" fill="#40c463" opacity="0.95"/>
  <polyline points="265.0,160.0 272.3,160.0 279.6,160.0 286.9,160.0 294.2,160.0 301.5,160.0 308.8,150.7 316.2,158.6 323.5,158.6 330.8,157.2 338.1,155.8 345.4,160.0 352.7,160.0 360.0,160.0 367.3,160.0 374.6,160.0 381.9,160.0 389.2,160.0 396.5,160.0 403.8,160.0 411.2,160.0 418.5,160.0 425.8,156.3 433.1,151.6 440.4,157.7 447.7,152.6 455.0,153.0 462.3,153.5 469.6,155.8 476.9,160.0 484.2,160.0 491.5,160.0 498.8,98.3 506.2,74.1 513.5,126.6 520.8,159.5 528.1,159.5 535.4,143.8 542.7,141.0 550.0,160.0 557.3,159.1 564.6,50.0 571.9,124.7 579.2,108.0 586.5,143.8 593.8,158.6 601.2,160.0 608.5,149.8 615.8,149.3 623.1,159.5 630.4,159.1 637.7,157.2 645.0,160.0" fill="none" stroke="#40c463" stroke-width="2"/>
  <path d="M265,160.5H645" stroke="#586069"/>
  <g transform="translate(645,50)"><path d="M6,110.5H0.5V0.5H6" stroke="#586069" fill="none"/><g transform="translate(0,110.0)"><line stroke="#586069" x2="6"/><text fill="#586069" x="9" dy="0.32em" font-size="10">0</text></g><g transform="translate(0,88.0)"><line stroke="#586069" x2="6"/><text fill="#586069" x="9" dy="0.32em" font-size="10">48</text></g><g transform="translate(0,66.0)"><line stroke="#586069" x2="6"/><text fill="#586069" x="9" dy="0.32em" font-size="10">96</text></g><g transform="translate(0,44.0)"><line stroke="#586069" x2="6"/><text fill="#586069" x="9" dy="0.32em" font-size="10">144</text></g><g transform="translate(0,22.0)"><line stroke="#586069" x2="6"/><text fill="#586069" x="9" dy="0.32em" font-size="10">192</text></g><g transform="translate(0,0.0)"><line stroke="#586069" x2="6"/><text fill="#586069" x="9" dy="0.32em" font-size="10">240</text></g></g>
  <text x="515" y="190" fill="#586069" font-size="10">contributions in the last year</text>
  <text x="265" y="178" fill="#586069" font-size="10">25/08</text>
  <text x="620" y="178" fill="#586069" font-size="10">26/08</text>
</svg>
